<svg width="27" height="27" viewBox="0 0 27 27" fill="none" xmlns="http://www.w3.org/2000/svg">
<path d="M26.6678 13.3339C26.6678 15.9711 25.8858 18.5491 24.4206 20.7418C22.9555 22.9346 20.873 24.6436 18.4366 25.6528C16.0001 26.662 13.3191 26.9261 10.7326 26.4116C8.14606 25.8971 5.77019 24.6272 3.90541 22.7624C2.04063 20.8976 0.770704 18.5217 0.256213 15.9352C-0.258278 13.3487 0.00577736 10.6677 1.01499 8.23123C2.0242 5.79478 3.73324 3.71231 5.92599 2.24717C8.11873 0.782019 10.6967 0 13.3339 0C15.0849 0 16.8188 0.344891 18.4366 1.01498C20.0543 1.68507 21.5242 2.66724 22.7624 3.90541C24.0006 5.14357 24.9827 6.61349 25.6528 8.23123C26.3229 9.84898 26.6678 11.5829 26.6678 13.3339ZM14.6223 13.9806C14.4649 13.755 14.3316 13.5134 14.2248 13.2598C14.1628 13.1133 14.1099 12.9631 14.0665 12.8101H7.69685C6.69724 12.8132 5.73946 13.2117 5.03263 13.9185C4.3258 14.6254 3.92733 15.5831 3.92422 16.5827V18.848C3.92555 19.2478 4.08497 19.6309 4.36768 19.9136C4.65039 20.1963 5.03345 20.3557 5.43327 20.3571H11.8787C11.7166 20.0347 11.6324 19.6787 11.6328 19.3179V17.7583C11.6349 16.9957 11.8607 16.2504 12.2822 15.6148C12.7037 14.9793 13.3025 14.4813 14.0042 14.1827C14.2041 14.0978 14.4109 14.0301 14.6223 13.9806ZM11.0939 11.6783C11.8567 11.6783 12.6024 11.4521 13.2366 11.0283C13.8709 10.6045 14.3652 10.0022 14.6572 9.29742C14.9491 8.59268 15.0255 7.8172 14.8766 7.06904C14.7278 6.32089 14.3605 5.63366 13.8211 5.09427C13.2817 4.55489 12.5945 4.18756 11.8463 4.03874C11.0982 3.88992 10.3227 3.9663 9.61795 4.25822C8.91321 4.55013 8.31085 5.04447 7.88705 5.67873C7.46326 6.31298 7.23706 7.05866 7.23706 7.82147C7.23706 8.84437 7.6434 9.82538 8.3667 10.5487C9.09 11.272 10.071 11.6783 11.0939 11.6783ZM20.192 15.1613H15.5166C14.8282 15.163 14.1685 15.4372 13.6816 15.9238C13.1947 16.4104 12.9201 17.0699 12.9179 17.7583V19.3179C12.9188 19.5932 13.0286 19.857 13.2232 20.0517C13.4179 20.2464 13.6817 20.3562 13.9571 20.3571H21.7516C22.0269 20.3562 22.2907 20.2464 22.4854 20.0517C22.6801 19.857 22.7899 19.5932 22.7907 19.3179V17.7583C22.7885 17.0699 22.514 16.4104 22.027 15.9238C21.5401 15.4372 20.8804 15.163 20.192 15.1613ZM17.8543 14.3815C18.3792 14.3815 18.8923 14.2258 19.3288 13.9343C19.7653 13.6427 20.1055 13.2282 20.3064 12.7433C20.5074 12.2584 20.56 11.7248 20.4578 11.2099C20.3555 10.6951 20.1028 10.2221 19.7318 9.85087C19.3608 9.47959 18.888 9.22666 18.3732 9.12405C17.8584 9.02144 17.3248 9.07377 16.8397 9.27441C16.3547 9.47505 15.94 9.815 15.6482 10.2513C15.3563 10.6876 15.2003 11.2006 15.2 11.7255C15.1998 12.0742 15.2683 12.4195 15.4016 12.7418C15.5349 13.064 15.7303 13.3568 15.9768 13.6034C16.2233 13.8501 16.516 14.0458 16.8382 14.1793C17.1603 14.3128 17.5056 14.3815 17.8543 14.3815Z" fill="white"/>
</svg>
