<svg width="32" height="32" viewBox="0 0 32 32" fill="none" xmlns="http://www.w3.org/2000/svg">
<path d="M17.3334 28H28" stroke="white" stroke-width="2.66667" stroke-linecap="round" stroke-linejoin="round"/>
<path d="M20 6.6665L25.3333 11.9998" stroke="white" stroke-width="2.66667" stroke-linecap="round" stroke-linejoin="round"/>
<path d="M28.232 9.08252C28.9369 8.37775 29.333 7.42181 29.3332 6.425C29.3333 5.42818 28.9374 4.47214 28.2327 3.76719C27.5279 3.06225 26.572 2.66614 25.5751 2.66602C24.5783 2.66589 23.6223 3.06176 22.9173 3.76652L5.12266 21.5652C4.81309 21.8739 4.58415 22.2539 4.45599 22.6719L2.69466 28.4745C2.6602 28.5898 2.6576 28.7123 2.68713 28.829C2.71666 28.9457 2.77722 29.0522 2.86239 29.1372C2.94756 29.2222 3.05415 29.2826 3.17087 29.312C3.28759 29.3413 3.41007 29.3385 3.52533 29.3039L9.32933 27.5439C9.74689 27.4169 10.1269 27.1893 10.436 26.8812L28.232 9.08252Z" stroke="white" stroke-width="2.66667" stroke-linecap="round" stroke-linejoin="round"/>
</svg>
