<svg width="32" height="32" viewBox="0 0 32 32" fill="none" xmlns="http://www.w3.org/2000/svg">
<path d="M16.5453 17.3558C17.1531 15.947 18.2282 14.791 19.5892 14.0827C20.9503 13.3745 22.514 13.1574 24.0165 13.468C25.519 13.7787 26.8684 14.5981 27.837 15.788C28.8056 16.9779 29.3341 18.4655 29.3333 19.9998C29.3333 25.1545 24 29.3332 17.3333 29.3332C11.8973 29.3332 6.46266 28.2398 3.50533 26.0505C2.93733 25.6292 2.66399 24.9412 2.67866 24.2345C2.82399 16.9638 3.50266 2.6665 13.3333 2.6665C14.3942 2.6665 15.4116 3.08793 16.1618 3.83808C16.9119 4.58822 17.3333 5.60564 17.3333 6.6665C17.3333 7.37375 17.0524 8.05203 16.5523 8.55212C16.0522 9.05222 15.3739 9.33317 14.6667 9.33317C13.1933 9.33317 12.48 8.74117 12 7.99984" stroke="white" stroke-width="2.66667" stroke-linecap="round" stroke-linejoin="round"/>
<path d="M19.9999 18.6664C19.1953 18.0626 18.2643 17.6487 17.277 17.4558C16.2896 17.2628 15.2713 17.2959 14.2985 17.5524C13.3257 17.809 12.4236 18.2823 11.6598 18.9371C10.8959 19.5918 10.2902 20.411 9.88794 21.3331" stroke="white" stroke-width="2.66667" stroke-linecap="round" stroke-linejoin="round"/>
<path d="M13.2853 9.1001C10.692 10.6361 12.6666 17.3334 10.6666 20.0001" stroke="white" stroke-width="2.66667" stroke-linecap="round" stroke-linejoin="round"/>
</svg>
